<svg width="391" height="712" viewBox="0 0 391 712" fill="none" xmlns="http://www.w3.org/2000/svg">
<g opacity="0.95">
<path d="M373.972 628.669L323.325 641.363L358.303 678.273L318.821 709.532L291.209 665.556L265.389 710.454L224.594 680.581L259.052 642.472L207.997 631.533L222.415 584.262L270.278 604.763L264.212 552.45L314.546 551.582L310.279 603.559L356.641 581.946L373.972 628.669Z" fill="url(#paint0_linear_43_65)" fill-opacity="0.48"/>
<path d="M53.2121 532.161L42.6044 543.172L57.0133 546.898L52.0566 560.781L38.3813 554.159L38.932 569.304L24.1701 568.227L26.8169 553.425L12.4434 558.637L8.69364 544.673L23.7573 542.328L14.1391 530.293L26.5028 522.264L33.5031 535.82L41.6636 523.262L53.2121 532.161Z" fill="url(#paint1_linear_43_65)" fill-opacity="0.95"/>
<path d="M386.211 5.83735L382.979 9.19174L387.369 10.3269L385.859 14.5562L381.693 12.5388L381.86 17.1527L377.363 16.8245L378.17 12.3151L373.791 13.9029L372.648 9.64894L377.238 8.93465L374.307 5.26835L378.074 2.82233L380.207 6.95197L382.693 3.12622L386.211 5.83735Z" fill="#D7D39E" fill-opacity="0.94"/>
<path d="M132.84 39.6648L127.489 45.2187L134.757 47.0981L132.257 54.1005L125.359 50.7604L125.637 58.3996L118.191 57.8562L119.526 50.39L112.276 53.0189L110.385 45.9756L117.983 44.793L113.132 38.7227L119.368 34.6729L122.899 41.5103L127.015 35.176L132.84 39.6648Z" fill="#D7D39E" fill-opacity="0.95"/>
<path d="M264.198 45.2341L257.979 51.6898L266.427 53.8744L263.521 62.0138L255.503 58.1313L255.826 67.0109L247.171 66.3793L248.723 57.7008L240.296 60.7566L238.097 52.5696L246.929 51.195L241.29 44.1391L248.538 39.4316L252.643 47.3793L257.427 40.0165L264.198 45.2341Z" fill="#EAE6B6" fill-opacity="0.94"/>
</g>
<defs>
<linearGradient id="paint0_linear_43_65" x1="272" y1="609.5" x2="276" y2="670" gradientUnits="userSpaceOnUse">
<stop stop-color="#D7D39E"/>
<stop offset="1" stop-color="#FBF8CC"/>
</linearGradient>
<linearGradient id="paint1_linear_43_65" x1="33" y1="521.5" x2="36.5" y2="559.5" gradientUnits="userSpaceOnUse">
<stop stop-color="#D7D39E"/>
<stop offset="1" stop-color="#FBF8CC"/>
</linearGradient>
</defs>
</svg>
